<svg width="128" height="176" viewBox="0 0 128 176" fill="none" xmlns="http://www.w3.org/2000/svg">
<path d="M80 74.6666C80 74.6666 75 79.5 64 79.5C53 79.5 48 74.6666 48 74.6666" stroke="#57B77D" stroke-width="10.6667" stroke-linecap="round"/>
<path d="M74.6665 101.333C94.7785 101.333 104.837 101.333 111.082 95.0827C117.333 88.8373 117.333 78.7787 117.333 58.6667C117.333 38.5547 117.333 28.496 111.082 22.2507C104.837 16 94.7785 16 74.6665 16H53.3332C33.2212 16 23.1625 16 16.9172 22.2507C10.6665 28.496 10.6665 38.5547 10.6665 58.6667C10.6665 78.7787 10.6665 88.8373 16.9172 95.0827C20.3998 98.5707 25.0665 100.112 31.9998 100.789" stroke="#57B77D" stroke-width="10.6667" stroke-linecap="round" stroke-linejoin="round"/>
<path d="M74.6665 101.333C68.0745 101.333 60.8105 104 54.1812 107.44C43.5252 112.971 38.1972 115.739 35.5732 113.973C32.9492 112.213 33.4452 106.747 34.4425 95.8187L34.6665 93.3334" stroke="#57B77D" stroke-width="10.6667" stroke-linecap="round"/>
<circle cx="39" cy="44" r="10" fill="#57B77D"/>
<circle cx="89" cy="44" r="10" fill="#57B77D"/>
<path d="M17.8438 167.391C23.375 167.391 27.2344 164.203 27.7656 159.172H23.1719C22.6719 161.844 20.6562 163.484 17.8594 163.484C14.25 163.484 11.9844 160.516 11.9844 155.703C11.9844 150.953 14.2812 147.969 17.8438 147.969C20.5938 147.969 22.7188 149.781 23.1562 152.547H27.75C27.3906 147.5 23.2656 144.062 17.8438 144.062C11.3125 144.062 7.17188 148.453 7.17188 155.719C7.17188 163 11.2812 167.391 17.8438 167.391ZM30.4062 167H34.9688V157.438C34.9688 155.234 36.2344 153.719 38.3906 153.719C40.4688 153.719 41.5312 155.031 41.5312 157.188V167H46.0938V156.219C46.0938 152.344 43.9688 149.938 40.25 149.938C37.7031 149.938 35.875 151.125 34.9844 153.234H34.8906V144.453H30.4062V167ZM55.4844 163.969C53.9375 163.969 52.9062 163.188 52.9062 161.938C52.9062 160.75 53.875 159.984 55.5781 159.859L59.1094 159.641V160.859C59.1094 162.672 57.4688 163.969 55.4844 163.969ZM53.9844 167.266C56.0781 167.266 58.1562 166.219 59.0938 164.438H59.1875V167H63.5938V155.484C63.5938 152.109 60.7969 149.891 56.5 149.891C52.0625 149.891 49.2969 152.125 49.125 155.375H53.2969C53.5156 154.141 54.5938 153.297 56.2969 153.297C58.0156 153.297 59.1094 154.203 59.1094 155.766V156.875L54.8906 157.125C50.7188 157.375 48.375 159.141 48.375 162.188C48.375 165.203 50.7969 167.266 53.9844 167.266ZM67.7656 146.391V150.25H65.4062V153.688H67.7656V162.484C67.7656 165.75 69.2969 167.062 73.2344 167.062C74.1562 167.062 74.9375 166.984 75.4062 166.875V163.516C75.125 163.562 74.7031 163.594 74.2969 163.594C72.9531 163.594 72.3281 162.984 72.3281 161.703V153.688H75.4219V150.25H72.3281V146.391H67.7656ZM102.188 167V144.453H96.7188L90.3125 160.438H90.1875L83.7812 144.453H78.3125V167H82.5156V151.781H82.6406L88.7656 166.781H91.7344L97.8594 151.781H97.9844V167H102.188ZM113.062 153.266C115.094 153.266 116.484 154.734 116.578 156.875H109.469C109.625 154.781 111.062 153.266 113.062 153.266ZM116.641 161.875C116.219 163.156 114.938 163.984 113.266 163.984C110.938 163.984 109.422 162.344 109.422 159.953V159.672H120.969V158.281C120.969 153.188 117.891 149.891 113.016 149.891C108.062 149.891 104.938 153.359 104.938 158.703C104.938 164.062 108.031 167.359 113.188 167.359C117.328 167.359 120.328 165.156 120.828 161.875H116.641Z" fill="#57B77D"/>
</svg>
