<svg width="80" height="80" viewBox="0 0 80 80" fill="none" xmlns="http://www.w3.org/2000/svg">
<rect x="1" y="1" width="78" height="78" rx="14" stroke="#F4F7FF" stroke-width="2"/>
<path d="M55.9184 40.0567C55.9184 38.7636 55.8128 37.5201 55.6169 36.3264H40V43.3891H48.9239C48.532 45.6605 47.3562 47.5837 45.5925 48.8768V53.4693H50.974C54.1095 50.2861 55.9184 45.6107 55.9184 40.0567Z" fill="#4285F4"/>
<path d="M40.073 57.1427C44.5392 57.1427 48.2836 55.6596 51.0204 53.117L45.652 48.9249C44.1783 49.9237 42.2986 50.5291 40.073 50.5291C35.7723 50.5291 32.1182 47.6082 30.8099 43.6733H25.3061V47.9714C28.0279 53.4046 33.6069 57.1427 40.073 57.1427Z" fill="#34A853"/>
<path d="M30.2041 43.1144C29.8701 42.1308 29.6728 41.0877 29.6728 39.9998C29.6728 38.9119 29.8701 37.8687 30.2041 36.8851V32.6528H24.6483C23.5099 34.8584 22.8571 37.3471 22.8571 39.9998C22.8571 42.6524 23.5099 45.1411 24.6483 47.3467L28.9745 44.0384L30.2041 43.1144Z" fill="#FBBC05"/>
<path d="M40.0043 29.4783C42.429 29.4783 44.5843 30.3248 46.3056 31.9575L51.0204 27.1956C48.1616 24.5047 44.4496 22.8569 40.0043 22.8569C33.5682 22.8569 28.0153 26.5909 25.3061 32.033L30.7843 36.3263C32.0864 32.3959 35.7235 29.4783 40.0043 29.4783Z" fill="#EA4335"/>
</svg>
