<svg width="20" height="20" viewBox="0 0 20 20" fill="none" xmlns="http://www.w3.org/2000/svg">
<path d="M13 5C13 6.65685 11.6569 8 10 8C8.34315 8 7 6.65685 7 5C7 3.34315 8.34315 2 10 2C11.6569 2 13 3.34315 13 5Z" fill="#57B77D"/>
<path d="M18 7C18 8.10457 17.1046 9 16 9C14.8954 9 14 8.10457 14 7C14 5.89543 14.8954 5 16 5C17.1046 5 18 5.89543 18 7Z" fill="#57B77D"/>
<path d="M14 14C14 11.7909 12.2091 10 10 10C7.79086 10 6 11.7909 6 14V17H14V14Z" fill="#57B77D"/>
<path d="M6 7C6 8.10457 5.10457 9 4 9C2.89543 9 2 8.10457 2 7C2 5.89543 2.89543 5 4 5C5.10457 5 6 5.89543 6 7Z" fill="#57B77D"/>
<path d="M16 17V14C16 12.9459 15.7282 11.9552 15.2507 11.0943C15.4902 11.0327 15.7413 11 16 11C17.6569 11 19 12.3431 19 14V17H16Z" fill="#57B77D"/>
<path d="M4.74926 11.0943C4.27185 11.9552 4 12.9459 4 14V17H1V14C1 12.3431 2.34315 11 4 11C4.25871 11 4.50977 11.0327 4.74926 11.0943Z" fill="#57B77D"/>
</svg>
